Coordinates
version=1
nRows=39
nColumns=18
inDegrees=yes

Units are S.I. units (second, meters, Newtons, ...)
If the header above contains a line with 'inDegrees', this indicates whether rotational values are in degrees (yes) or radians (no).

endheader
time	ground_thorax_rot_x	ground_thorax_rot_y	ground_thorax_rot_z	ground_thorax_tx	ground_thorax_ty	ground_thorax_tz	clav_prot	clav_elev	scapula_abduction	scapula_elevation	scapula_upward_rot	scapula_winging	plane_elv	shoulder_elv	axial_rot	elbow_flexion	pro_sup
      0.00000000	      1.13275118	     -9.98198377	    -20.39064016	     -0.01257715	     -0.01428570	      0.04093127	    -23.89964647	    -13.99454399	    -18.61584976	    -10.33057833	      9.02434485	     33.79473696	     -8.91203742	     27.91986370	    -12.60997509	      8.19740462	     63.92270238
      0.02000000	      1.14182069	     -9.88305805	    -20.39103308	     -0.01258535	     -0.01425614	      0.04084674	    -23.94769015	    -14.07759153	    -18.66511144	    -10.38911914	      9.00564027	     33.84684829	     -9.07577618	     27.91882734	    -12.74285416	      7.98215240	     63.92270238
      0.04000000	      1.16191006	     -9.82119999	    -20.42535210	     -0.01257827	     -0.01434943	      0.04076967	    -23.94899658	    -14.08979574	    -18.67639499	    -10.39163710	      8.97988217	     33.85756438	     -9.09247737	     27.95569647	    -12.81521544	      7.87901654	     63.92270238
      0.06000000	      1.18392479	     -9.73538740	    -20.49782757	     -0.01252579	     -0.01448464	      0.04068113	    -23.98307645	    -14.11638461	    -18.73483110	    -10.40475688	      8.94734734	     33.88455371	     -9.19115141	     27.99170653	    -12.91568792	      8.01519252	     63.92270238
      0.08000000	      1.20324466	     -9.70407813	    -20.53765579	     -0.01250668	     -0.01459410	      0.04064362	    -23.97608100	    -14.11750763	    -18.73901494	    -10.39830173	      8.91987912	     33.88863792	     -9.00614955	     28.05233559	    -12.91144012	      7.66419318	     63.92270238
      0.10000000	      1.14827158	     -9.62811558	    -20.61752237	     -0.01251380	     -0.01477581	      0.04054345	    -23.97205335	    -14.18116563	    -18.72912373	    -10.43472882	      8.88063253	     33.92278080	     -9.05057978	     28.06543049	    -13.28946466	      7.62072064	     63.92270238
      0.12000000	      1.18896060	     -9.56336318	    -20.66352382	     -0.01246832	     -0.01486535	      0.04045280	    -23.98331104	    -14.18730512	    -18.76056664	    -10.43207370	      8.84970063	     33.93459162	     -8.99571220	     28.13071431	    -13.17489547	      7.48366894	     63.92270238
      0.14000000	      1.21663826	     -9.46851795	    -20.69466906	     -0.01242301	     -0.01493827	      0.04034984	    -24.00645162	    -14.19503021	    -18.80512708	    -10.43308205	      8.82616852	     33.94877889	     -9.02234410	     28.15549991	    -13.16615250	      7.42662984	     63.92270238
      0.16000000	      1.20491733	     -9.39207397	    -20.72748456	     -0.01237810	     -0.01501592	      0.04024257	    -24.01812931	    -14.23055054	    -18.83384192	    -10.44808257	      8.77990767	     33.97645042	     -9.03636693	     28.17818332	    -13.14518086	      7.33986058	     63.92270238
      0.18000000	      1.23889804	     -9.29884462	    -20.75870592	     -0.01231800	     -0.01510701	      0.04009617	    -24.02883574	    -14.21225925	    -18.86840697	    -10.43021162	      8.75957882	     33.97543492	     -9.14185382	     28.20661641	    -13.17136913	      7.48938401	     63.92270238
      0.20000000	      1.23391411	     -9.23560639	    -20.78956546	     -0.01230208	     -0.01517903	      0.03996143	    -24.01111017	    -14.22718067	    -18.84182872	    -10.43738517	      8.74864536	     33.97933094	     -9.04021509	     28.23056694	    -13.14043806	      7.20206286	     63.92270238
      0.22000000	      1.19771833	     -9.20451165	    -20.83359229	     -0.01225595	     -0.01524827	      0.03981116	    -23.94821551	    -14.26084829	    -18.73294409	    -10.45903344	      8.75069972	     33.97658349	     -9.11597363	     28.23364551	    -13.28853825	      7.14894754	     63.92270238
      0.24000000	      1.19725425	     -9.07617168	    -20.86547376	     -0.01219259	     -0.01531718	      0.03964655	    -24.00620997	    -14.27830506	    -18.84486125	    -10.46038299	      8.69243691	     34.01127873	     -9.06448725	     28.25704352	    -13.14804261	      7.09427947	     63.92270238
      0.26000000	      1.14105412	     -9.01785417	    -20.89955409	     -0.01214245	     -0.01538144	      0.03946078	    -23.95148532	    -14.31119209	    -18.74389898	    -10.48404106	      8.70294688	     34.00874449	     -9.31617506	     28.19891317	    -13.27071371	      7.32409863	     63.92270238
      0.28000000	      1.15949448	     -8.97620250	    -20.90902108	     -0.01213882	     -0.01542508	      0.03929746	    -23.89041270	    -14.26051375	    -18.67370989	    -10.44313705	      8.70101578	     33.97078359	     -9.15750379	     28.23639319	    -13.23836753	      7.01498296	     63.92270238
      0.30000000	      1.07730895	     -8.88494987	    -20.98905740	     -0.01208904	     -0.01557098	      0.03906713	    -23.88163834	    -14.29672161	    -18.62607557	    -10.47827323	      8.73745280	     33.97690028	     -9.35695286	     28.14776241	    -13.67336827	      7.27995188	     63.92270238
      0.32000000	      1.08073901	     -8.78092421	    -20.96615162	     -0.01197820	     -0.01551603	      0.03901034	    -23.99292637	    -14.31467693	    -18.86491095	    -10.46126498	      8.59294491	     34.04320450	     -9.04374911	     28.21958530	    -13.22370351	      6.85717556	     63.92270238
      0.34000000	      1.03883739	     -8.76076012	    -21.01409496	     -0.01195813	     -0.01561023	      0.03880707	    -23.87952245	    -14.27957917	    -18.66009645	    -10.45174344	      8.68217722	     33.97985158	     -9.29481910	     28.12843754	    -13.62319951	      7.10609493	     63.92270238
      0.36000000	      1.02007651	     -8.65266430	    -21.02653597	     -0.01190626	     -0.01561198	      0.03866380	    -23.92205489	    -14.28983818	    -18.75858977	    -10.44377946	      8.61129321	     34.00976501	     -9.09771350	     28.14619611	    -13.44044488	      6.72098976	     63.92270238
      0.38000000	      0.98697187	     -8.56759267	    -21.03637468	     -0.01181270	     -0.01561297	      0.03856107	    -23.94048290	    -14.29450582	    -18.81054295	    -10.43617797	      8.56341481	     34.02623735	     -9.11070034	     28.11201824	    -13.37050140	      6.62168843	     63.92270238
      0.40000000	      0.96923330	     -8.49643590	    -21.06210649	     -0.01172155	     -0.01563978	      0.03845554	    -23.93476777	    -14.28438632	    -18.80480373	    -10.42902206	      8.56565808	     34.01987872	     -9.16422755	     28.05679397	    -13.41007750	      6.52868339	     63.92270238
      0.42000000	      0.92400282	     -8.41150181	    -21.09898442	     -0.01160899	     -0.01567528	      0.03839484	    -23.94030847	    -14.29818180	    -18.82217495	    -10.43271746	      8.53901899	     34.03261048	     -9.22029861	     27.99216156	    -13.44401083	      6.40992903	     63.92270238
      0.44000000	      0.96068570	     -8.34390229	    -21.13551500	     -0.01151289	     -0.01573143	      0.03835901	    -23.91676129	    -14.22584605	    -18.83043260	    -10.37173022	      8.51220047	     34.00040524	     -9.16678321	     28.01161681	    -13.53345122	      6.26364786	     63.92270238
      0.46000000	      0.88265047	     -8.25559580	    -21.20193709	     -0.01129936	     -0.01576040	      0.03838666	    -23.94291492	    -14.32323398	    -18.84874031	    -10.43616391	      8.47929173	     34.05597109	     -9.38646628	     27.91155643	    -13.59576875	      6.20248961	     63.92270238
      0.48000000	      0.86852929	     -8.16834327	    -21.26574359	     -0.01112110	     -0.01582723	      0.03843874	    -23.94158961	    -14.34351468	    -18.86935643	    -10.43684291	      8.42350751	     34.07484563	     -9.47208997	     27.89758374	    -13.65852378	      6.08468261	     63.92270238
      0.50000000	      0.88746913	     -8.17400472	    -21.33538020	     -0.01082533	     -0.01592456	      0.03871816	    -23.93351203	    -14.32788633	    -18.87928828	    -10.41760302	      8.39406166	     34.07237945	     -9.49408074	     27.86822083	    -13.65858395	      6.06973694	     63.92270238
      0.52000000	      0.89126025	     -7.99020318	    -21.45065741	     -0.01068496	     -0.01600381	      0.03862551	    -23.91366033	    -14.39836079	    -18.83325554	    -10.46262442	      8.37226846	     34.10186192	     -9.70909611	     27.88164835	    -13.71524600	      5.82511187	     63.92270238
      0.54000000	      0.87294789	     -7.90006660	    -21.55649775	     -0.01042580	     -0.01612788	      0.03877546	    -23.87528595	    -14.47226717	    -18.79073962	    -10.49407648	      8.29061454	     34.13977125	     -9.86621498	     27.90809662	    -13.70407153	      5.72059899	     63.92270238
      0.56000000	      0.91932288	     -7.79521653	    -21.68056969	     -0.01016599	     -0.01627493	      0.03894043	    -23.84429923	    -14.50620762	    -18.76048854	    -10.50349080	      8.23638178	     34.15644966	     -9.94796032	     27.98320862	    -13.71099325	      5.60925414	     63.92270238
      0.58000000	      0.97338629	     -7.67203343	    -21.80875029	     -0.00991882	     -0.01651369	      0.03911692	    -23.81842387	    -14.51308327	    -18.72742188	    -10.50317375	      8.22057720	     34.15598823	     -9.99857534	     28.02037877	    -13.69893366	      5.55056205	     63.92270238
      0.60000000	      1.05399684	     -7.52227354	    -21.91461754	     -0.00966629	     -0.01663667	      0.03929935	    -23.80177257	    -14.56987668	    -18.74183377	    -10.51512347	      8.10645122	     34.19873803	    -10.07305101	     28.19300072	    -13.66681883	      5.45448141	     63.92270238
      0.62000000	      1.14278898	     -7.39318588	    -22.04412627	     -0.00945528	     -0.01683238	      0.03951534	    -23.74362647	    -14.59922314	    -18.68321813	    -10.51477344	      8.03262191	     34.21026596	    -10.03995985	     28.36771259	    -13.61986174	      5.35878778	     63.92270238
      0.64000000	      1.20683943	     -7.24487535	    -22.21015688	     -0.00923838	     -0.01707316	      0.03966933	    -23.68541529	    -14.68069742	    -18.60954853	    -10.54991917	      7.94786456	     34.24677876	     -9.99257642	     28.57722606	    -13.52096127	      5.32723220	     63.92270238
      0.66000000	      1.29652657	     -7.10992390	    -22.35590823	     -0.00906533	     -0.01732877	      0.03984653	    -23.60799433	    -14.72862266	    -18.51895398	    -10.56013965	      7.86619277	     34.26265942	     -9.85189761	     28.82588765	    -13.40294846	      5.28952698	     63.92270238
      0.68000000	      1.39409986	     -6.93552976	    -22.48663360	     -0.00897229	     -0.01751765	      0.03997908	    -23.54568448	    -14.79939943	    -18.44162906	    -10.58806513	      7.78477660	     34.29272596	     -9.69699698	     29.10996716	    -13.32146366	      5.28587481	     63.92270238
      0.70000000	      1.49041406	     -6.71983452	    -22.59411398	     -0.00892809	     -0.01770534	      0.04000469	    -23.51138499	    -14.86230809	    -18.33889870	    -10.64465595	      7.83349878	     34.30169981	     -9.61367867	     29.27532544	    -13.27976799	      5.32430834	     63.92270238
      0.72000000	      1.60330130	     -6.49683310	    -22.70414585	     -0.00897029	     -0.01785007	      0.03999583	    -23.46991439	    -14.93645218	    -18.21977512	    -10.70960488	      7.88432965	     34.31345981	     -9.45561015	     29.50546363	    -13.21979794	      5.39390844	     63.92270238
      0.74000000	      1.71275370	     -6.30824006	    -22.81787622	     -0.00905255	     -0.01799377	      0.03997911	    -23.41151248	    -15.01377442	    -18.09320523	    -10.76704652	      7.89991458	     34.32901011	     -9.12625335	     29.83391214	    -13.12717153	      5.48498893	     63.92270238
      0.76000000	      1.80773968	     -6.07210838	    -22.90807287	     -0.00927058	     -0.01809973	      0.03986946	    -23.35284350	    -15.09813232	    -17.95688591	    -10.83265708	      7.92751487	     34.34552996	     -8.75761368	     30.17075264	    -13.04496164	      5.57369256	     63.92270238
